<?xml version="1.0" standalone="no"?>
<!DOCTYPE svg PUBLIC "-//W3C//DTD SVG 20010904//EN"
 "http://www.w3.org/TR/2001/REC-SVG-20010904/DTD/svg10.dtd">
<svg version="1.0" xmlns="http://www.w3.org/2000/svg"
 width="202.000000pt" height="249.000000pt" viewBox="0 0 202.000000 249.000000"
 preserveAspectRatio="xMidYMid meet">

<g transform="translate(0.000000,249.000000) scale(0.100000,-0.100000)"
fill="#000000" stroke="none">
<path d="M515 2409 c-47 -14 -128 -81 -148 -123 -44 -93 -30 -251 28 -314 l33
-37 -29 -36 c-51 -65 -81 -137 -91 -222 -6 -45 -8 -234 -6 -422 4 -334 4 -341
29 -411 27 -73 89 -163 166 -241 l43 -42 -33 -16 c-18 -8 -41 -30 -51 -49 -10
-18 -37 -47 -60 -63 -24 -17 -56 -48 -72 -69 -15 -22 -45 -55 -65 -76 -43 -42
-74 -106 -83 -165 l-6 -43 64 0 c61 0 64 1 70 26 22 86 212 295 308 338 61 28
75 30 97 17 11 -7 8 -19 -19 -63 -18 -29 -47 -71 -65 -93 -52 -63 -145 -196
-145 -206 0 -5 30 -9 68 -9 75 0 74 -1 166 130 21 30 68 88 104 127 84 95 104
95 167 7 45 -62 116 -156 136 -179 10 -11 30 -35 46 -53 26 -31 31 -32 76 -26
37 5 47 11 47 26 0 21 -57 106 -157 235 -40 51 -41 63 -6 63 16 0 88 12 162
27 l134 27 29 -34 c48 -57 127 -203 157 -290 l19 -55 65 -3 66 -3 -11 33 c-47
141 -91 228 -117 228 -4 0 -8 13 -8 29 0 16 -17 55 -41 92 -23 35 -42 68 -42
74 0 5 13 19 29 30 85 60 176 170 220 268 12 26 31 91 42 145 20 91 20 118 14
427 -3 182 -11 370 -16 419 -19 177 -84 309 -211 426 -79 73 -193 131 -294
149 -70 13 -765 13 -809 0z m691 -546 c23 -12 55 -34 73 -48 l31 -27 0 -248
c0 -139 4 -260 10 -275 14 -36 37 -42 63 -16 17 16 23 39 28 103 7 76 10 85
38 110 55 49 199 39 252 -18 22 -24 24 -35 27 -147 2 -74 -3 -169 -12 -242
-19 -139 -50 -211 -128 -300 -51 -56 -165 -137 -210 -148 -21 -6 -25 -11 -21
-29 5 -21 4 -22 -11 -7 -16 15 -23 14 -84 -4 -55 -16 -97 -19 -227 -19 -228 1
-313 9 -326 33 -5 10 -23 26 -39 34 -30 16 -134 117 -177 173 -14 18 -35 63
-46 100 -19 61 -21 101 -25 419 -3 302 -1 360 12 408 24 82 82 139 166 166 14
4 147 7 295 6 257 -2 272 -3 311 -24z m-581 -1253 c22 -10 35 -19 29 -19 -14
-1 -84 27 -84 34 0 8 13 5 55 -15z m70 -30 c3 -5 2 -10 -4 -10 -5 0 -13 5 -16
10 -3 6 -2 10 4 10 5 0 13 -4 16 -10z m480 -80 c-9 -14 -66 -43 -72 -36 -12
12 8 35 34 39 15 2 32 5 36 6 5 0 5 -4 2 -9z"/>
<path d="M598 1634 c-22 -12 -28 -22 -28 -49 0 -43 20 -55 92 -55 58 0 78 12
78 46 0 55 -84 90 -142 58z"/>
<path d="M973 1630 c-79 -48 1 -135 92 -100 35 13 45 26 45 61 0 54 -77 76
-137 39z"/>
<path d="M615 1303 c-32 -8 -45 -23 -45 -53 0 -38 31 -63 80 -63 49 0 80 25
80 64 0 43 -53 67 -115 52z"/>
<path d="M963 1285 c-27 -19 -30 -57 -7 -79 24 -24 118 -22 144 4 23 23 25 39
6 65 -19 26 -113 33 -143 10z"/>
<path d="M758 995 c5 -30 -13 -33 -28 -4 -9 17 -19 20 -58 17 l-47 -3 0 -52
c1 -60 24 -92 90 -124 75 -37 254 -24 333 24 32 19 72 87 72 122 0 31 -73 47
-84 19 -7 -19 -56 -11 -69 12 -6 11 -32 14 -111 14 l-103 0 5 -25z m122 -105
c0 -33 -4 -60 -10 -60 -11 0 -14 103 -3 113 12 12 13 8 13 -53z m-100 -50 c0
-5 -7 -10 -15 -10 -8 0 -15 5 -15 10 0 6 7 10 15 10 8 0 15 -4 15 -10z"/>
</g>
</svg>
